<svg width="48" height="49" viewBox="0 0 48 49" fill="none" xmlns="http://www.w3.org/2000/svg">
<rect y="0.882629" width="48" height="48" rx="10" fill="url(#paint0_linear_25601_90)"/>
<rect y="0.882629" width="48" height="48" rx="10" fill="white"/>
<g clip-path="url(#clip0_25601_90)">
<path d="M28.4989 12.8826C27.2194 12.9711 25.7239 13.7901 24.8524 14.8566C24.0574 15.8241 23.4034 17.2611 23.6584 18.6576C25.0564 18.7011 26.5009 17.8626 27.3379 16.7781C28.1209 15.7686 28.7134 14.3406 28.4989 12.8826Z" fill="#B9B9B9"/>
<path d="M33.5554 20.9346C32.327 19.3941 30.6005 18.5001 28.97 18.5001C26.8175 18.5001 25.907 19.5306 24.4115 19.5306C22.8695 19.5306 21.698 18.5031 19.8365 18.5031C18.008 18.5031 16.061 19.6206 14.8266 21.5316C13.0911 24.2226 13.3881 29.2821 16.2005 33.5915C17.207 35.1335 18.551 36.8675 20.309 36.8825C21.8735 36.8975 22.3145 35.879 24.434 35.8685C26.5535 35.8565 26.9555 36.896 28.517 36.8795C30.2765 36.866 31.694 34.9445 32.7004 33.4025C33.4219 32.297 33.6904 31.7405 34.2499 30.4926C30.1805 28.9431 29.528 23.1561 33.5554 20.9346Z" fill="#B9B9B9"/>
</g>
<defs>
<linearGradient id="paint0_linear_25601_90" x1="0" y1="24.8826" x2="48" y2="24.8826" gradientUnits="userSpaceOnUse">
<stop stop-color="#00F5A0"/>
<stop offset="1" stop-color="#00D9F5"/>
</linearGradient>
<clipPath id="clip0_25601_90">
<rect width="24" height="24" fill="white" transform="translate(12 12.8826)"/>
</clipPath>
</defs>
</svg>
