<svg width="40" height="40" viewBox="0 0 40 40" fill="none" xmlns="http://www.w3.org/2000/svg">
<circle cx="20" cy="20" r="20" fill="#FDFDFE"/>
<path d="M8.84594 24.013C8.38308 24.0945 7.91208 24.119 7.42485 24.1841L5.93873 19.8166V24.3716C5.47587 24.4204 5.0536 24.4856 4.61508 24.5508V16.2069H5.84946L7.53852 20.9412V16.2069H8.84594V24.013ZM11.404 19.2625C11.9075 19.2625 12.6789 19.2381 13.1418 19.2381V20.5418C12.5652 20.5418 11.8912 20.5418 11.404 20.5662V22.5056C12.1673 22.4567 12.9307 22.3915 13.7021 22.367V23.6218L10.1046 23.907V16.2069H13.7021V17.5106H11.404V19.2625ZM18.5339 17.5107H17.1859V23.5078C16.7473 23.5078 16.3088 23.5078 15.8866 23.5241V17.5107H14.5386V16.2069H18.5339L18.5339 17.5107ZM20.6452 19.1729H22.4237V20.4766H20.6452V23.4345H19.3702V16.2069H23.0003V17.5106H20.6452V19.1729ZM25.1116 22.2937C25.8506 22.31 26.5977 22.3671 27.3205 22.4078V23.6952C26.1592 23.6218 24.9979 23.5486 23.8123 23.5241V16.2069H25.1116V22.2937ZM28.4167 23.7849C28.8309 23.8094 29.2694 23.8338 29.6917 23.8826V16.2069H28.4167V23.7849ZM35.3843 16.2069L33.7358 20.1752L35.3843 24.5508C34.897 24.4856 34.4098 24.396 33.9225 24.3145L32.9887 21.9026L32.0387 24.119C31.5676 24.0374 31.1128 24.013 30.6419 23.9478L32.3147 20.1262L30.8043 16.2069H32.2009L33.0536 18.3988L33.9632 16.2069H35.3843Z" fill="#D81F26"/>
</svg>
