<svg width="57" height="56" viewBox="0 0 57 56" fill="none" xmlns="http://www.w3.org/2000/svg">
<circle cx="28.543" cy="28" r="28" fill="white"/>
<path d="M23.3616 42.5863L23.8939 39.2158L22.7081 39.1884H17.0461L20.9809 14.3179C20.9926 14.2419 21.0314 14.1727 21.09 14.1228C21.1487 14.0729 21.2234 14.0456 21.3005 14.046H30.8476C34.017 14.046 36.2043 14.7035 37.3463 16.0011C37.8816 16.6099 38.2226 17.246 38.3875 17.9461C38.5605 18.6806 38.5636 19.5583 38.3946 20.6286L38.3824 20.7068V21.3926L38.9178 21.695C39.3265 21.9014 39.6938 22.1806 40.0017 22.5188C40.4597 23.0393 40.7559 23.7008 40.8811 24.4851C41.0104 25.2917 40.9676 26.2515 40.7559 27.3381C40.5116 28.588 40.1167 29.6767 39.5834 30.5675C39.1128 31.3655 38.4801 32.0567 37.7259 32.5967C37.0175 33.0979 36.1758 33.4783 35.2241 33.7218C34.302 33.9613 33.2506 34.082 32.0974 34.082H31.3544C30.8231 34.082 30.3071 34.2728 29.902 34.6147C29.4975 34.9602 29.2292 35.4377 29.1448 35.962L29.0888 36.2654L28.1483 42.2058L28.1056 42.4239C28.0944 42.4929 28.0751 42.5274 28.0466 42.5507C28.0189 42.5732 27.9845 42.5858 27.9488 42.5863H23.3616Z" fill="#253B80"/>
<path d="M39.4285 20.7701C39.4 20.9519 39.3675 21.1377 39.3308 21.3287C38.0724 27.779 33.767 30.0073 28.2683 30.0073H25.4686C24.7961 30.0073 24.2295 30.4948 24.1247 31.157L22.6913 40.2328L22.2853 42.8054C22.2692 42.9075 22.2754 43.0118 22.3034 43.1112C22.3315 43.2107 22.3809 43.3028 22.4481 43.3814C22.5153 43.46 22.5987 43.5231 22.6927 43.5664C22.7867 43.6097 22.8889 43.6321 22.9924 43.6321H27.958C28.546 43.6321 29.0456 43.2056 29.1381 42.6267L29.187 42.3748L30.1219 36.4516L30.1819 36.1266C30.2735 35.5456 30.774 35.1191 31.362 35.1191H32.1047C36.9157 35.1191 40.6819 33.169 41.7826 27.5261C42.2424 25.1688 42.0044 23.2005 40.7877 21.8162C40.402 21.388 39.9414 21.0335 39.4285 20.7701Z" fill="#179BD7"/>
<path d="M38.136 20.3246C37.7319 20.2086 37.3208 20.1181 36.9052 20.0536C36.084 19.9283 35.254 19.8683 34.4231 19.8739H26.9012C26.6149 19.8737 26.338 19.9751 26.1205 20.1598C25.903 20.3444 25.7593 20.6002 25.7154 20.8809L24.1152 30.9365L24.0692 31.2299C24.119 30.9097 24.2827 30.6179 24.5306 30.4071C24.7785 30.1964 25.0942 30.0806 25.4207 30.0808H28.2363C33.7663 30.0808 38.0961 27.8526 39.3617 21.4067C39.3996 21.2159 39.4313 21.0301 39.46 20.8484C39.126 20.6746 38.7779 20.529 38.4194 20.4129C38.3255 20.382 38.231 20.3525 38.136 20.3246Z" fill="#222D65"/>
<path d="M25.7902 20.8467C25.8336 20.5649 25.9766 20.3079 26.1932 20.1226C26.4097 19.9373 26.6855 19.8358 26.9705 19.8367H34.4573C35.3443 19.8367 36.1722 19.8948 36.9278 20.0171C37.4391 20.0975 37.9434 20.2178 38.436 20.3769C38.8077 20.5002 39.1529 20.646 39.4716 20.8141C39.8464 18.4221 39.4686 16.7934 38.1763 15.3187C36.7517 13.6951 34.1803 13 30.8901 13H21.338C20.6659 13 20.0926 13.4892 19.9887 14.1547L16.0101 39.3949C15.9916 39.5121 15.9986 39.6319 16.0308 39.7461C16.0629 39.8603 16.1194 39.9662 16.1963 40.0565C16.2733 40.1467 16.3688 40.2193 16.4764 40.269C16.584 40.3188 16.7011 40.3447 16.8197 40.3448H22.7169L24.1975 30.9428L25.7902 20.8467Z" fill="#253B80"/>
</svg>
