<svg width="34" height="35" viewBox="0 0 34 35" fill="none" xmlns="http://www.w3.org/2000/svg">
<rect y="0.882622" width="34" height="34" rx="10" fill="#00030C"/>
<path fill-rule="evenodd" clip-rule="evenodd" d="M13.4277 8.88262C13.8477 8.88262 14.1887 9.21701 14.1887 9.62984C14.1887 10.0417 13.8487 10.3761 13.4277 10.3761L11.7987 10.3771C10.4467 10.379 9.3467 11.4587 9.3467 12.7854V14.6446C9.3467 15.0565 9.0047 15.3918 8.5847 15.3918C8.1647 15.3918 7.8237 15.0565 7.8237 14.6446V12.7854C7.8237 10.6359 9.6067 8.88556 11.7977 8.8836L13.4267 8.88262H13.4277ZM20.6006 8.88292H22.1936C24.3906 8.88292 26.1766 10.6343 26.1766 12.7886V14.6449C26.1766 15.0568 25.8366 15.3921 25.4156 15.3921C24.9956 15.3921 24.6546 15.0568 24.6546 14.6449V12.7886C24.6546 11.458 23.5506 10.3754 22.1936 10.3754H20.6006C20.1806 10.3754 19.8396 10.042 19.8396 9.63013C19.8396 9.2173 20.1806 8.88292 20.6006 8.88292ZM19.7625 12.6253H14.2385C12.9745 12.638 11.9585 13.651 11.9695 14.8914V16.1368C11.9725 16.2819 12.0915 16.4006 12.2395 16.4055H21.7595C21.9085 16.4016 22.0275 16.2829 22.0325 16.1368V14.8914C22.0335 14.2923 21.7975 13.7167 21.3715 13.2882C20.9485 12.8636 20.3675 12.6253 19.7625 12.6253ZM6.762 17.9239H27.239C27.659 17.9239 28 18.2582 28 18.6711C28 19.0829 27.659 19.4163 27.239 19.4163H26.177V22.9759C26.177 25.1313 24.39 26.8826 22.194 26.8826H20.601C20.18 26.8826 19.839 26.5482 19.839 26.1354C19.839 25.7236 20.18 25.3892 20.601 25.3892H22.194C23.551 25.3892 24.655 24.3076 24.655 22.9759V19.4163H22.032V20.4077C22.042 21.6482 21.027 22.6621 19.762 22.6739H14.238C12.974 22.6621 11.959 21.6482 11.969 20.4077V19.4163H9.346V22.9798C9.346 24.3066 10.447 25.3862 11.8 25.3882L13.428 25.3892C13.848 25.3892 14.189 25.7236 14.189 26.1354C14.188 26.5482 13.848 26.8826 13.427 26.8826L11.798 26.8816C9.607 26.8797 7.823 25.1293 7.823 22.9798V19.4163H6.762C6.342 19.4163 6 19.0829 6 18.6711C6 18.2582 6.342 17.9239 6.762 17.9239Z" fill="#00F6FF"/>
</svg>
