<svg width="48" height="49" viewBox="0 0 48 49" fill="none" xmlns="http://www.w3.org/2000/svg">
<rect y="0.882629" width="48" height="48" rx="10" fill="url(#paint0_linear_20701_98)"/>
<rect y="0.882629" width="48" height="48" rx="10" fill="white"/>
<path d="M13.4768 21.6192C13.4708 21.5649 13.4225 21.5408 13.3863 21.5408C13.3501 21.5408 12.5599 21.4805 12.5599 21.4805C12.5599 21.4805 12.011 20.9315 11.9446 20.8772C11.8843 20.8169 11.7697 20.835 11.7215 20.8471C11.7154 20.8471 11.6008 20.8833 11.4138 20.9436C11.2268 20.4067 10.9071 19.9181 10.334 19.9181H10.2798C10.1229 19.713 9.91783 19.6165 9.74893 19.6165C8.42184 19.6165 7.78243 21.2754 7.58337 22.1199C7.0646 22.2827 6.69663 22.3913 6.65441 22.4094C6.36486 22.4999 6.35883 22.5059 6.32264 22.7774C6.29248 22.9825 5.53845 28.8156 5.53845 28.8156L11.4078 29.9135L14.5928 29.2258C14.5988 29.2137 13.4829 21.6735 13.4768 21.6192ZM11.0881 21.028C10.9433 21.0703 10.7684 21.1246 10.5934 21.1849V21.0763C10.5934 20.7506 10.5512 20.4852 10.4728 20.274C10.7744 20.3102 10.9614 20.642 11.0881 21.028ZM10.1048 20.3404C10.1832 20.5455 10.2375 20.835 10.2375 21.2331V21.2935C9.9118 21.396 9.56796 21.4986 9.21206 21.6132C9.41112 20.8531 9.79115 20.4791 10.1048 20.3404ZM9.71876 19.9664C9.77909 19.9664 9.83941 19.9905 9.88767 20.0267C9.45938 20.2258 9.00697 20.7264 8.81997 21.7398C8.53645 21.8303 8.26501 21.9088 8.00562 21.9932C8.22278 21.2211 8.76568 19.9664 9.71876 19.9664Z" fill="#95BF47"/>
<path d="M13.3864 21.5288C13.3502 21.5288 12.56 21.4685 12.56 21.4685C12.56 21.4685 12.011 20.9195 11.9447 20.8652C11.9205 20.8411 11.8904 20.829 11.8663 20.829L11.4259 29.9136L14.6109 29.2259C14.6109 29.2259 13.4949 21.6736 13.4889 21.6193C13.4648 21.565 13.4226 21.5408 13.3864 21.5288Z" fill="#5E8E3E"/>
<path d="M10.3341 23.2901L9.94807 24.4543C9.94807 24.4543 9.5982 24.2673 9.18197 24.2673C8.56066 24.2673 8.53049 24.6594 8.53049 24.756C8.53049 25.2868 9.91791 25.4919 9.91791 26.7405C9.91791 27.7238 9.29659 28.3572 8.45811 28.3572C7.4447 28.3572 6.93799 27.7298 6.93799 27.7298L7.20944 26.8371C7.20944 26.8371 7.74027 27.2955 8.18666 27.2955C8.48224 27.2955 8.60288 27.0663 8.60288 26.8974C8.60288 26.2037 7.46882 26.1735 7.46882 25.0274C7.46882 24.0683 8.1565 23.1393 9.54994 23.1393C10.0687 23.1333 10.3341 23.2901 10.3341 23.2901Z" fill="white"/>
<path d="M18.3086 25.4798C17.9889 25.3109 17.826 25.1601 17.826 24.961C17.826 24.7077 18.0552 24.5448 18.4111 24.5448C18.8274 24.5448 19.1953 24.7137 19.1953 24.7137L19.4849 23.827C19.4849 23.827 19.2195 23.6219 18.4353 23.6219C17.3434 23.6219 16.5834 24.2492 16.5834 25.1299C16.5834 25.6306 16.9393 26.0106 17.4098 26.2821C17.7959 26.4932 17.9286 26.65 17.9286 26.8793C17.9286 27.1145 17.7355 27.3075 17.3796 27.3075C16.8548 27.3075 16.3542 27.0361 16.3542 27.0361L16.0465 27.9228C16.0465 27.9228 16.505 28.2305 17.2771 28.2305C18.3991 28.2305 19.2134 27.6755 19.2134 26.6802C19.2014 26.1373 18.7972 25.7633 18.3086 25.4798ZM22.7845 23.6098C22.2295 23.6098 21.7952 23.8752 21.4634 24.2734L21.4514 24.2673L21.934 21.7579H20.6853L19.4668 28.1521H20.7155L21.1317 25.9684C21.2945 25.142 21.7228 24.6293 22.121 24.6293C22.4045 24.6293 22.5131 24.8223 22.5131 25.0937C22.5131 25.2626 22.501 25.4798 22.4588 25.6487L21.9883 28.1521H23.2369L23.7255 25.5703C23.7798 25.2988 23.816 24.9731 23.816 24.7499C23.81 24.0321 23.442 23.6098 22.7845 23.6098ZM26.6391 23.6098C25.131 23.6098 24.1357 24.9671 24.1357 26.4811C24.1357 27.4463 24.7329 28.2305 25.8549 28.2305C27.3328 28.2305 28.3281 26.9094 28.3281 25.3592C28.3342 24.4604 27.8154 23.6098 26.6391 23.6098ZM26.0238 27.2774C25.5955 27.2774 25.4206 26.9155 25.4206 26.457C25.4206 25.7392 25.7886 24.575 26.4702 24.575C26.9105 24.575 27.0614 24.961 27.0614 25.329C27.0614 26.0951 26.6813 27.2774 26.0238 27.2774ZM31.5312 23.6098C30.6867 23.6098 30.2102 24.3578 30.2102 24.3578H30.1981L30.2705 23.6882H29.1606C29.1063 24.1406 29.0037 24.8344 28.9072 25.3471L28.0446 29.9255H29.2933L29.6431 28.0736H29.6733C29.6733 28.0736 29.9327 28.2365 30.4032 28.2365C31.8751 28.2365 32.8342 26.7285 32.8342 25.2083C32.8282 24.3638 32.4481 23.6098 31.5312 23.6098ZM30.3369 27.2895C30.0111 27.2895 29.8181 27.1025 29.8181 27.1025L30.0232 25.9382C30.1679 25.1541 30.5781 24.6413 31.0125 24.6413C31.3985 24.6413 31.5131 24.9972 31.5131 25.329C31.5192 26.1373 31.0366 27.2895 30.3369 27.2895ZM34.6137 21.8183C34.2156 21.8183 33.8959 22.138 33.8959 22.5421C33.8959 22.9101 34.1311 23.1695 34.487 23.1695H34.4991C34.8912 23.1695 35.223 22.904 35.229 22.4456C35.235 22.0776 34.9877 21.8183 34.6137 21.8183ZM32.8644 28.146H34.113L34.9575 23.7063H33.7028L32.8644 28.146ZM38.1425 23.7003H37.2739L37.3161 23.4952C37.3885 23.0669 37.6419 22.6929 38.0641 22.6929C38.2873 22.6929 38.4623 22.7593 38.4623 22.7593L38.7035 21.776C38.7035 21.776 38.4924 21.6674 38.0219 21.6674C37.5816 21.6674 37.1352 21.7941 36.7974 22.0837C36.3691 22.4456 36.17 22.9704 36.0735 23.5012L36.0373 23.7063H35.4522L35.2652 24.6534H35.8503L35.1868 28.1521H36.4354L37.099 24.6534H37.9616L38.1425 23.7003ZM41.1526 23.7063C41.1526 23.7063 40.3684 25.6789 40.0246 26.7586H40.0125C39.9884 26.4088 39.7049 23.7063 39.7049 23.7063H38.3899L39.1439 27.772C39.156 27.8625 39.1499 27.9168 39.1137 27.9771C38.969 28.2606 38.7216 28.5321 38.4321 28.7311C38.1968 28.9 37.9314 29.0147 37.7203 29.087L38.0702 30.1487C38.3235 30.0944 38.8543 29.8833 39.2947 29.4671C39.8617 28.9362 40.3926 28.1098 40.9355 26.9878L42.4616 23.7003H41.1526V23.7063Z" fill="black"/>
<defs>
<linearGradient id="paint0_linear_20701_98" x1="0" y1="24.8826" x2="48" y2="24.8826" gradientUnits="userSpaceOnUse">
<stop stop-color="#00F5A0"/>
<stop offset="1" stop-color="#00D9F5"/>
</linearGradient>
</defs>
</svg>
