<svg width="48" height="49" viewBox="0 0 48 49" fill="none" xmlns="http://www.w3.org/2000/svg">
<rect y="0.882629" width="48" height="48" rx="10" fill="url(#paint0_linear_20701_97)"/>
<rect y="0.882629" width="48" height="48" rx="10" fill="white"/>
<path d="M19.7333 29.4794L21.3587 20.3365H23.8984L22.3238 29.4794H19.7333Z" fill="#3C58BF"/>
<path d="M19.7333 29.4794L21.8158 20.3365H23.8984L22.3238 29.4794H19.7333Z" fill="#293688"/>
<path d="M31.5174 20.4382C31.0095 20.235 30.1968 20.0319 29.1809 20.0319C26.6412 20.0319 24.8126 21.3017 24.8126 23.1303C24.8126 24.5017 26.0825 25.2128 27.0984 25.67C28.1142 26.1271 28.419 26.4319 28.419 26.8382C28.419 27.4477 27.6063 27.7525 26.8952 27.7525C25.8793 27.7525 25.3206 27.6001 24.4571 27.2446L24.1015 27.0922L23.746 29.1747C24.3555 29.4287 25.473 29.6827 26.6412 29.6827C29.3333 29.6827 31.1111 28.4128 31.1111 26.4827C31.1111 25.416 30.4507 24.6033 28.9269 23.943C28.0126 23.4858 27.4539 23.2319 27.4539 22.7747C27.4539 22.3684 27.9111 21.962 28.9269 21.962C29.7904 21.962 30.3999 22.1144 30.8571 22.3176L31.1111 22.4192L31.5174 20.4382Z" fill="#3C58BF"/>
<path d="M31.5174 20.4382C31.0095 20.235 30.1968 20.0319 29.1809 20.0319C26.6412 20.0319 25.2698 21.3017 25.2698 23.1303C25.2698 24.5017 26.0825 25.2128 27.0984 25.67C28.1142 26.1271 28.419 26.4319 28.419 26.8382C28.419 27.4477 27.6063 27.7525 26.8952 27.7525C25.8793 27.7525 25.3206 27.6001 24.4571 27.2446L24.1015 27.0922L23.746 29.1747C24.3555 29.4287 25.473 29.6827 26.6412 29.6827C29.3333 29.6827 31.1111 28.4128 31.1111 26.4827C31.1111 25.416 30.4507 24.6033 28.9269 23.943C28.0126 23.4858 27.4539 23.2319 27.4539 22.7747C27.4539 22.3684 27.9111 21.962 28.9269 21.962C29.7904 21.962 30.3999 22.1144 30.8571 22.3176L31.1111 22.4192L31.5174 20.4382Z" fill="#293688"/>
<path d="M35.8856 20.3365C35.2761 20.3365 34.819 20.3873 34.565 20.9969L30.7555 29.4794H33.4983L34.0063 27.9556H37.2571L37.5618 29.4794H39.9999L37.8666 20.3365H35.8856ZM34.7174 26.4318C34.8698 25.9746 35.7333 23.7397 35.7333 23.7397C35.7333 23.7397 35.9364 23.181 36.0888 22.8254L36.2412 23.6889C36.2412 23.6889 36.7491 25.9746 36.8507 26.4826H34.7174V26.4318Z" fill="#3C58BF"/>
<path d="M36.4952 20.3365C35.8856 20.3365 35.4285 20.3873 35.1745 20.9969L30.7555 29.4794H33.4983L34.0063 27.9556H37.2571L37.5618 29.4794H39.9999L37.8666 20.3365H36.4952ZM34.7174 26.4318C34.9206 25.9239 35.7333 23.7397 35.7333 23.7397C35.7333 23.7397 35.9364 23.181 36.0888 22.8254L36.2412 23.6889C36.2412 23.6889 36.7491 25.9746 36.8507 26.4826H34.7174V26.4318Z" fill="#293688"/>
<path d="M15.0603 26.7366L14.8063 25.4159C14.3491 23.8921 12.8761 22.2159 11.2507 21.4032L13.5364 29.5302H16.2793L20.3936 20.3874H17.6507L15.0603 26.7366Z" fill="#3C58BF"/>
<path d="M15.0603 26.7366L14.8063 25.4159C14.3491 23.8921 12.8761 22.2159 11.2507 21.4032L13.5364 29.5302H16.2793L20.3936 20.3874H18.1587L15.0603 26.7366Z" fill="#293688"/>
<path d="M8 20.3365L8.45714 20.4381C11.7079 21.2 13.9429 23.1302 14.8063 25.4159L13.8921 21.0985C13.7397 20.4889 13.2825 20.3365 12.7238 20.3365H8Z" fill="#FFBC00"/>
<path d="M8 20.3365C11.2508 21.0985 13.9429 23.0794 14.8063 25.3651L13.9429 21.7588C13.7905 21.1492 13.2825 20.7937 12.7238 20.7937L8 20.3365Z" fill="#F7981D"/>
<path d="M8 20.3365C11.2508 21.0985 13.9429 23.0794 14.8063 25.3651L14.1968 23.3842C14.0444 22.7746 13.8413 22.1651 13.1302 21.9112L8 20.3365Z" fill="#ED7C00"/>
<path d="M17.6 26.4318L15.8731 24.7048L15.0604 26.635L14.8572 25.3651C14.4 23.8413 12.927 22.1651 11.3016 21.3524L13.5874 29.4794H16.3302L17.6 26.4318Z" fill="#051244"/>
<path d="M22.3238 29.4794L20.1396 27.2444L19.7333 29.4794H22.3238Z" fill="#051244"/>
<path d="M28.1651 26.3301C28.3683 26.5333 28.4699 26.6857 28.4191 26.8889C28.4191 27.4984 27.6064 27.8032 26.8953 27.8032C25.8794 27.8032 25.3207 27.6508 24.4572 27.2952L24.1016 27.1428L23.7461 29.2254C24.3556 29.4793 25.4731 29.7333 26.6413 29.7333C28.2667 29.7333 29.5874 29.2762 30.3493 28.4635L28.1651 26.3301Z" fill="#051244"/>
<path d="M31.1112 29.4794H33.4985L34.0064 27.9556H37.2572L37.562 29.4794H40.0001L39.1366 25.7715L36.089 22.8254L36.2414 23.6381C36.2414 23.6381 36.7493 25.9239 36.8509 26.4318H34.7176C34.9207 25.9239 35.7334 23.7397 35.7334 23.7397C35.7334 23.7397 35.9366 23.181 36.089 22.8254" fill="#051244"/>
<defs>
<linearGradient id="paint0_linear_20701_97" x1="0" y1="24.8826" x2="48" y2="24.8826" gradientUnits="userSpaceOnUse">
<stop stop-color="#00F5A0"/>
<stop offset="1" stop-color="#00D9F5"/>
</linearGradient>
</defs>
</svg>
